<svg version="1" xmlns="http://www.w3.org/2000/svg" width="1365.333" height="1365.333" viewBox="0 0 1024.000000 1024.000000"><path d="M369.8 226.5c-.2.1-4.1.5-8.8.9-7.7.5-11.9 1.1-23 3.1-10.3 1.8-33.4 8-39.8 10.7-1.5.6-2.9 1.2-3.2 1.3-12.5 4.3-34.8 15.6-49.4 25.2-45.9 30-80.4 75.2-98.5 128.9-2.2 6.7-7.6 27.9-8.6 33.9-.4 2.2-.9 5.3-1.1 7-.3 1.6-.7 4.1-1 5.5-.9 5-1.8 21.8-1.8 33 0 44.5 10.9 85.4 33.8 126.3l3.6 6.5-38.7 64.6c-21.4 35.5-39.6 65.8-40.5 67.3-1 1.6-2.1 3.5-2.5 4.3-.5.8-5.7 9.6-11.6 19.5-6 9.9-11.4 18.9-12 19.9-.7 1.1-2.7 4.3-4.4 7.2-1.8 2.9-2.9 5.5-2.4 5.8.9.6 10.5-5.1 74.3-43.4 22.4-13.5 41.5-25 42.5-25.5 1-.6 17.5-10.4 36.7-22l34.8-20.9 3.2 1.8c28 16.4 68.8 30.9 96.1 34.2 2.8.4 5.3.8 5.6 1 2.5 1.4 36.1 2.2 49.9 1.1 31.4-2.6 65.2-12.3 96.8-28l12.2-6 11.6 5.7c24.1 12 50.3 20.8 74.4 25.2 1.4.2 3.7.7 5.3 1 12.4 2.5 45.2 3.6 59.2 2 3.3-.4 8-.9 10.5-1.2 5.5-.7 23-4.1 28.5-5.6 2.2-.6 4.5-1.2 5.2-1.4 3.1-.6 18.8-6 27.3-9.4 10-3.9 26.4-11.7 36.3-17.2 5.2-2.8 6.1-3 8-1.8 23.8 15 185.3 110.8 185.5 110 .3-.8-2.6-6.5-8.3-15.9-.5-.9-8-13.2-16.5-27.4-8.5-14.1-15.9-26.5-16.5-27.4-.5-1-3.9-6.7-7.5-12.6l-8.1-13.5c-.9-1.5-13.1-21.9-27.2-45.4-14-23.4-26-43.6-26.6-44.7-.9-1.6-.5-3 2-7.3 14.8-24.9 27.3-59.8 31.5-87.8.3-1.9.7-4.2.9-5 3.1-11.6 2.4-59.7-1-76-.3-1.4-.8-4.1-1.1-6-1.7-11.1-10-38.6-15.1-50-14.9-33.4-30.4-56.1-54.6-80C785 267.8 751 247.6 712 236.5c-10.5-3-13.4-3.8-19.5-4.9-1.1-.2-4.7-.9-8-1.6-14.5-2.7-28.7-3.8-48.5-3.5-11.3.2-21.4.5-22.5.8-1.1.3-4.5.8-7.5 1.1-26.9 3.1-64.2 15.9-90.5 31.1l-3 1.7-11.6-6c-26.1-13.5-57.6-23.5-83.9-26.7-3-.4-7.1-.9-9-1.2-3.9-.4-37.7-1.2-38.2-.8zm28.7 45.9c5 .4 10 .8 11.2 1 1.2.3 4.3.8 7 1.1 12.9 1.8 32.1 7.7 46.6 14.3l7.8 3.5-7.8 8.1c-23.9 24.9-37.2 44.4-51.3 75.2-4.7 10.2-12 32.4-13.6 41.2-.3 1.4-.7 2.9-.9 3.2-.2.4-.9 3.5-1.4 7.1-.6 3.5-1.3 7.5-1.6 8.9-.2 1.3-.7 5.4-1 9-.4 3.6-.8 8.5-1.1 11-.7 6.7-.6 30.4.1 39 .8 10.2 1.3 13.6 3.1 25.5 3.9 24.4 15.5 56.4 27.8 76.9 2 3.2 3.6 6.1 3.6 6.3 0 1.1 13.8 20.4 19.9 27.8 7.5 9.1 12.3 14.4 20 22.1 4.7 4.7 5.1 5.4 3.5 6-1.1.4-4.4 1.7-7.4 2.9-9.5 3.9-33.6 11-41 12.1-1.9.3-4.2.7-5 .9-.8.2-3.7.7-6.5 1-2.7.4-6.1.9-7.5 1.1-9.4 1.8-40.9.6-56-2.1-27.5-4.9-60.4-19.3-87.3-38.3l-5.9-4.1-3.1 2c-1.8 1-4.1 2.3-5.2 2.9-1.1.6-3.2 1.8-4.8 2.8-1.5.9-13.6 8.2-26.9 16.2-13.3 8-26 15.6-28.1 16.9-3.6 2.2-4 2.2-3.3.5.4-1 9.9-17.3 21.2-36.2 11.3-18.9 20.4-34.6 20.2-35-.2-.4-3.7-5.9-7.9-12.2-9-13.4-13.2-21.1-18.7-33.5-6.8-15.5-13.1-36.6-14.7-49.5-.4-3-1.1-7.7-1.5-10.5-1.2-7.7-.9-37 .5-46.5 2.2-14.5 2.5-16 5.1-26.2 10-39.5 32.3-76 62.6-102.4 33.7-29.4 76.4-47.1 120.9-50 5.2-.3 9.5-.7 9.6-.8.2-.2 8.8.2 18.8.8zm258.4.1c34.4 2.6 69.9 15 98.1 34.4 14.1 9.6 29.9 23.8 41.4 37.1 10.8 12.5 28 41.4 33.4 56 6 16.4 10.5 32.6 11.7 42.5.4 2.7.8 5.7 1 6.5.7 2.6 1.8 20.2 1.7 27.5-.1 10.1-1.2 23.1-2.3 28.9-.5 2.8-1.2 6.7-1.5 8.6-1.2 8.2-8.1 31.1-11.9 39.5-5.5 12.4-14 27.8-20.6 37.8-4.4 6.5-7.9 12-7.9 12.2 0 .2 9.5 16.2 21 35.5 11.6 19.4 21 35.5 20.8 35.9-.2.4-15.1-8.2-33.3-19-18.1-10.9-34.2-20.5-35.6-21.3-2.5-1.5-2.8-1.4-9 3-26.1 18.6-60.8 33.8-85.9 37.8-1.9.3-4.6.8-6 1-18.2 3.4-52 2.5-71-2-1.4-.3-3.6-.8-5-1.1-3.6-.6-12.5-3.1-20-5.6-3.6-1.2-6.7-2.1-7-2.2-1.4-.1-13.7-5-14.7-5.8-.9-.6 1.3-3.4 7.7-10 26.9-27.7 45.3-58.1 58-95.7 1.7-5.2 3.4-10.6 3.6-12 .3-1.4 1.1-5 1.9-8 6.8-27.2 8.6-64.5 4.5-91.5-.5-3.3-1.1-7.6-1.4-9.5-2.1-14.2-7.9-35.1-14.3-51-12.7-31.9-31-59.9-54.3-83.1l-6.6-6.6 6.5-3.1c12.8-6.2 33.4-12.6 47.1-14.7 2.5-.4 5.4-.9 6.5-1.1 1.1-.3 6.1-.7 11-1 5-.4 9.1-.7 9.2-.8.4-.3 15.6.3 23.2.9zm-136.2 53.3c34.5 30.4 57.1 73 64 120.2 2.7 19.1 2.4 43.3-.8 64-4 25.8-16.1 55.8-31.8 79-9.2 13.5-25.2 31.2-36.3 40.1l-3.6 2.9-5.9-4.8c-7.6-6.3-19.9-19.1-25.9-26.7-21.8-28-34.4-57.4-40.9-95-1.9-11.2-2.5-38.7-1.1-50.5.4-3.6.9-7.6 1-9 .7-5.6 1.8-11.7 2.6-14.5.5-1.7 1.2-4.4 1.4-6 .7-3.7 5.6-19.1 8.6-26.5 11-27.7 32.7-57.9 54.9-76.4 2.3-2 4.7-3.6 5.2-3.6s4.4 3.1 8.6 6.8z"/></svg>