<?xml version="1.0" encoding="utf-8"?>
<!-- Generator: Adobe Illustrator 27.5.0, SVG Export Plug-In . SVG Version: 6.00 Build 0)  -->
<svg version="1.1" id="LOGO" xmlns="http://www.w3.org/2000/svg" xmlns:xlink="http://www.w3.org/1999/xlink" x="0px" y="0px"
	 viewBox="0 0 249.22 204.61" style="enable-background:new 0 0 249.22 204.61;" xml:space="preserve">
<style type="text/css">
	.st0{fill:#002432;}
</style>
<path id="APROPOS" class="st0" d="M21.72,165.69l-12,32.4h9.79l1.92-5.9h10.99l1.97,5.9h10.46l-12.58-34.18L21.72,165.69z
	 M23.83,184.75l2.98-9.26l3.12,9.26H23.83z M58.63,163.91c-2.78,0-7.97,0.29-10.66,0.58v33.6h10.08V187h1.1
	c9.94,0,14.74-4.8,14.74-11.81C73.9,168.71,69.53,163.91,58.63,163.91z M59.35,179.8h-1.3v-8.69h1.78c2.26,0,3.98,1.2,3.98,4.13
	C63.82,178.07,62.14,179.8,59.35,179.8z M104.86,174.52c0-6-4.85-10.61-15.75-10.61c-2.78,0-7.97,0.29-10.66,0.58v33.6h10.08v-11.62
	h1.63l5.38,11.62h10.9l-7.06-13.87C103.08,181.96,104.86,178.36,104.86,174.52z M91.42,179.71c-0.34,0.05-0.72,0.1-1.1,0.1h-1.78
	v-8.69h2.26c2.54,0,3.98,1.68,3.98,4.18C94.78,177.4,93.77,179.27,91.42,179.71z M126.36,163.91c-10.85,0-17.38,6.48-17.38,17.38
	c0,10.9,6.53,17.38,17.38,17.38c10.85,0,17.38-6.48,17.38-17.38C143.74,170.39,137.21,163.91,126.36,163.91z M126.36,190.22
	c-4.46,0-7.15-3.31-7.15-8.93c0-5.62,2.69-8.93,7.15-8.93c4.46,0,7.15,3.31,7.15,8.93C133.52,186.91,130.83,190.22,126.36,190.22z
	 M159.1,163.91c-2.78,0-7.97,0.29-10.66,0.58v33.6h10.08V187h1.1c9.94,0,14.74-4.8,14.74-11.81
	C174.36,168.71,169.99,163.91,159.1,163.91z M159.82,179.8h-1.3v-8.69h1.78c2.26,0,3.98,1.2,3.98,4.13
	C164.28,178.07,162.6,179.8,159.82,179.8z M194.76,163.91c-10.85,0-17.38,6.48-17.38,17.38c0,10.9,6.53,17.38,17.38,17.38
	c10.85,0,17.38-6.48,17.38-17.38C212.14,170.39,205.61,163.91,194.76,163.91z M194.76,190.22c-4.46,0-7.15-3.31-7.15-8.93
	c0-5.62,2.69-8.93,7.15-8.93c4.46,0,7.15,3.31,7.15,8.93C201.91,186.91,199.23,190.22,194.76,190.22z M224.95,173.61
	c0-1.25,1.34-2.16,3.94-2.16c2.4,0,4.94,0.72,7.73,1.73l1.87-7.06c-1.63-0.72-5.18-2.21-9.41-2.21c-7.39,0-13.54,3.5-13.54,10.75
	c0,11.14,14.55,9.7,14.55,14.16c0,1.34-1.39,2.3-4.13,2.3c-2.35,0-5.18-0.67-8.83-2.06l-2.35,7.1c3.12,1.58,7.2,2.5,10.99,2.5
	c8.54,0,13.73-4.22,13.73-10.99C239.5,176.3,224.95,177.83,224.95,173.61z M18.69,142.69l32.21-18.8l11.42-6.66
	c0.4-0.23,0.88-0.22,1.28,0.01c9.29,5.59,20.01,8.6,30.94,8.6c10.8,0,20.94-2.88,29.71-7.9c0.56-0.32,1.23-0.32,1.78,0
	c8.76,5.02,18.9,7.9,29.71,7.9c10.93,0,21.65-3.01,30.94-8.6c0.39-0.24,0.88-0.24,1.28-0.01l11.42,6.66l32.21,18.8
	c1.12,0.65,2.38-0.61,1.72-1.73l-18.91-32.15l-6.27-10.66c-0.56-0.95-0.55-2.12-0.01-3.08c4.69-8.36,7.27-17.67,7.55-27.4
	c0.93-32.34-24.4-59.94-56.71-61.65c-12.01-0.63-23.3,2.3-32.93,7.82c-0.55,0.32-1.23,0.32-1.78,0c-9.63-5.52-20.92-8.45-32.92-7.82
	c-32.31,1.7-57.64,29.3-56.71,61.64c0.28,9.74,2.85,19.05,7.55,27.41c0.54,0.96,0.55,2.13-0.01,3.08l-6.27,10.66l-18.91,32.15
	C16.31,142.08,17.57,143.35,18.69,142.69z M137.53,20.64c6.92-2.87,14.65-4.19,22.75-3.54c23.93,1.92,43.13,21.35,44.79,45.3
	c0.86,12.34-2.87,23.77-9.64,32.8c-0.44,0.58-0.49,1.37-0.12,2l8.69,14.77c0.38,0.65-0.35,1.39-1,1l-14.7-8.58
	c-0.64-0.37-1.43-0.31-2.02,0.15c-8.29,6.45-18.71,10.3-30.03,10.3c-6.63,0-12.94-1.32-18.71-3.7c-1.18-0.49-1.49-2.02-0.58-2.93
	c10.83-10.85,17.54-25.82,17.54-42.32c0-16.51-6.71-31.47-17.54-42.32C136.05,22.67,136.35,21.13,137.53,20.64z M123.96,29.09
	c0.67-0.58,1.68-0.58,2.34,0c10.22,8.97,16.68,22.14,16.68,36.81s-6.45,27.83-16.68,36.81c-0.67,0.58-1.68,0.58-2.34,0
	c-10.22-8.97-16.68-22.14-16.68-36.81S113.74,38.06,123.96,29.09z M45.2,62.4C46.87,38.45,66.07,19.02,90,17.1
	c8.1-0.65,15.82,0.68,22.74,3.54c1.18,0.49,1.48,2.02,0.58,2.92c-10.83,10.85-17.54,25.82-17.54,42.32
	c0,16.51,6.71,31.47,17.54,42.32c0.9,0.9,0.6,2.44-0.58,2.93c-5.76,2.39-12.08,3.7-18.71,3.7c-11.32,0-21.74-3.85-30.03-10.3
	c-0.58-0.45-1.38-0.52-2.02-0.15l-14.7,8.58c-0.65,0.38-1.38-0.35-1-1l8.69-14.77c0.37-0.63,0.31-1.41-0.12-2
	C48.07,86.18,44.34,74.74,45.2,62.4z"/>
</svg>
