<svg id="Layer_1" data-name="Layer 1" xmlns="http://www.w3.org/2000/svg" viewBox="0 0 526.01 445.02"><defs><style>.cls-1{fill:#1d1d1b;}</style></defs><title>logo</title><path class="cls-1" d="M45.81,365.15l36.33,77.91H73.73L61.48,417.42H27.91L15.78,443.06H7.09L43.9,365.15Zm-1,16.55L31.47,409.9H58.11Z"/><path class="cls-1" d="M94.16,365.15h15.52q13.35,0,18,1.16a20,20,0,0,1,10.91,6.76,19.44,19.44,0,0,1,4.24,12.84q0,7.79-4.14,12.84a20.31,20.31,0,0,1-11.38,6.81q-5.29,1.28-19.81,1.27H102v36.23H94.16Zm7.79,7.63V399.2l13.19.16q8,0,11.7-1.45a12.05,12.05,0,0,0,5.83-4.71,13.39,13.39,0,0,0,0-14.43,11.8,11.8,0,0,0-5.59-4.62q-3.47-1.38-11.36-1.37Z"/><path class="cls-1" d="M158.83,365.15h15.52q13,0,17.58,1.06A20,20,0,0,1,203.21,373a19.44,19.44,0,0,1,4.35,12.86,20.72,20.72,0,0,1-3,11.19,18.58,18.58,0,0,1-8.55,7.29q-5.56,2.47-15.36,2.52l28,36.18H199l-28-36.18h-4.4v36.18h-7.79Zm7.79,7.63v26.48l13.42.1q7.8,0,11.53-1.48a12,12,0,0,0,5.84-4.74,13.15,13.15,0,0,0,2.1-7.28,12.6,12.6,0,0,0-2.13-7.13,11.84,11.84,0,0,0-5.57-4.58q-3.45-1.38-11.45-1.37Z"/><path class="cls-1" d="M261.34,363.19Q279,363.19,291,375t11.93,29.08A40.67,40.67,0,0,1,262,445q-17.33,0-29.25-11.87a39,39,0,0,1-11.92-28.7,41.53,41.53,0,0,1,5.43-20.82,40.13,40.13,0,0,1,35.11-20.44Zm.34,7.57a32,32,0,0,0-16.39,4.51,32.38,32.38,0,0,0-12.09,12.14,33.72,33.72,0,0,0-4.35,17,32.76,32.76,0,0,0,32.83,33,33.24,33.24,0,0,0,16.79-4.4,31.41,31.41,0,0,0,12-12,33.73,33.73,0,0,0,4.33-17,32.93,32.93,0,0,0-4.33-16.78,32.25,32.25,0,0,0-12.17-12A32.89,32.89,0,0,0,261.68,370.76Z"/><path class="cls-1" d="M318.46,365.15H334q13.33,0,18,1.16a20,20,0,0,1,10.91,6.76,19.39,19.39,0,0,1,4.24,12.84q0,7.79-4.13,12.84a20.3,20.3,0,0,1-11.39,6.81q-5.3,1.28-19.8,1.27h-5.57v36.23h-7.78Zm7.78,7.63V399.2l13.19.16q8,0,11.71-1.45A12,12,0,0,0,357,393.2a13.34,13.34,0,0,0,0-14.43,11.73,11.73,0,0,0-5.58-4.62c-2.32-.92-6.1-1.37-11.37-1.37Z"/><path class="cls-1" d="M419.8,363.19q17.7,0,29.63,11.81t11.92,29.08A40.67,40.67,0,0,1,420.44,445q-17.34,0-29.26-11.87a39,39,0,0,1-11.92-28.7,41.53,41.53,0,0,1,5.43-20.82,40.13,40.13,0,0,1,35.11-20.44Zm.35,7.57a32,32,0,0,0-16.39,4.51,32.34,32.34,0,0,0-12.1,12.14,33.72,33.72,0,0,0-4.35,17,32.78,32.78,0,0,0,32.84,33,33.29,33.29,0,0,0,16.79-4.4,31.55,31.55,0,0,0,12-12,33.83,33.83,0,0,0,4.32-17A33,33,0,0,0,449,387.27a32.27,32.27,0,0,0-12.18-12A32.86,32.86,0,0,0,420.15,370.76Z"/><path class="cls-1" d="M468.93,428.54l6.62-4q7,12.87,16.15,12.87a15.55,15.55,0,0,0,7.36-1.82,13,13,0,0,0,5.24-4.9,12.7,12.7,0,0,0,1.8-6.52,13.25,13.25,0,0,0-2.64-7.68q-3.66-5.19-13.35-12.5T478,393.38a19.5,19.5,0,0,1-4.13-11.92,18,18,0,0,1,2.44-9.27,17.35,17.35,0,0,1,6.86-6.59,19.7,19.7,0,0,1,9.61-2.41,20.49,20.49,0,0,1,10.3,2.73q4.8,2.73,10.14,10l-6.35,4.82q-4.39-5.82-7.5-7.68a12.93,12.93,0,0,0-6.75-1.85,10.7,10.7,0,0,0-7.71,2.86,9.37,9.37,0,0,0-3,7,12,12,0,0,0,1.06,4.93,18.26,18.26,0,0,0,3.87,5.19q1.53,1.49,10.06,7.78,10.11,7.47,13.88,13.3a21.45,21.45,0,0,1,3.76,11.7,19.89,19.89,0,0,1-6.44,14.73A21.66,21.66,0,0,1,492.44,445a23,23,0,0,1-12.87-3.79Q473.8,437.43,468.93,428.54Z"/><path d="M0,331.66,65.58,222.33C27.11,158.92,42.93,87.6,83,45.22,125.15.58,198.58-16.93,263.21,20.59c33-19.23,68.56-25.15,106.08-17.08,29.81,6.41,55,21.3,75.63,43.8C486.76,93,496.36,163.64,460.44,222.18Q493.13,276.66,526,331.51l-.58.82L416.44,267q-76.12,44.17-153.38,2.27C211.9,297,161,296.52,109.69,267L.79,332.27ZM95.72,219.27,70.89,260.8l.64.64L113,236.65C152.46,265.86,194.26,271,240,251.56,209,222,193.19,186.47,193.2,144.7s15.93-77.21,46.2-106.17c-37.33-19.74-93.28-16.94-133,20.63C68.63,94.86,52.49,162.92,95.72,219.27ZM286.35,251.7c45.68,19.38,87.55,14.12,126.77-15.06l41.57,24.86.52-.72-24.9-41.64C471.53,165.46,460.36,97.81,419.48,59c-41-38.95-98.48-39.35-132.56-20.41C345.9,92.68,350.54,192.77,286.35,251.7ZM263,53.48c-59.25,47.51-56.62,138.41.21,182.6C322.53,188.49,319.64,97.62,263,53.48Z"/></svg>